# xmcd
#
# Track frame offsets:
#	220
#	21302
#	44357
#	67202
#	81390
#	97585
#	109065
#	122792
#	143865
#	164007
#
# Disc length: 2559 seconds
#
# Revision: 5
# Processed by: cddbd v1.5.2PL0 Copyright (c) Steve Scherf et al.
# Submitted via: audiograbber 1.83.01
#
DISCID=8c09fd0a
DTITLE=Junior Wells and Buddy Guy - The Original Blues Brothers
DYEAR=1964
DGENRE=Blues
TTITLE0=Buddy Guy - Buddy's Blues
TTITLE1=Buddy Guy - Blue Monday
TTITLE2=Buddy Guy - Everyday I Have The Blues
TTITLE3=Buddy Guy - Woman Blues
TTITLE4=Buddy Guy - SatisfAction
TTITLE5=Junior Wells and Buddy Guy - Messin' With The Kid
TTITLE6=Junior Wells and Buddy Guy - No Use Cryin'
TTITLE7=Junior Wells and Buddy Guy - Just To Be With You
TTITLE8=Junior Wells and Buddy Guy - Junior's Shuffle
TTITLE9=Junior Wells and Buddy Guy - Out Of Sight
EXTD=
EXTT0=
EXTT1=
EXTT2=
EXTT3=
EXTT4=
EXTT5=
EXTT6=
EXTT7=
EXTT8=
EXTT9=
PLAYORDER=
